<?xml version="1.0" encoding="UTF-8" standalone="no"?>
<!-- Generator: Adobe Illustrator 24.0.0, SVG Export Plug-In . SVG Version: 6.00 Build 0)  -->

<svg
   xmlns:dc="http://purl.org/dc/elements/1.1/"
   xmlns:cc="http://creativecommons.org/ns#"
   xmlns:rdf="http://www.w3.org/1999/02/22-rdf-syntax-ns#"
   xmlns:svg="http://www.w3.org/2000/svg"
   xmlns="http://www.w3.org/2000/svg"
   xmlns:sodipodi="http://sodipodi.sourceforge.net/DTD/sodipodi-0.dtd"
   xmlns:inkscape="http://www.inkscape.org/namespaces/inkscape"
   version="1.0"
   id="top-plate"
   x="0px"
   y="0px"
   viewBox="0 0 141.7 141.7"
   style="enable-background:new 0 0 141.7 141.7;"
   xml:space="preserve"
   sodipodi:docname="kimiko-plate-bottom-screwless.svg"
   inkscape:version="0.92.5 (2060ec1f9f, 2020-04-08)"><metadata
   id="metadata27"><rdf:RDF><cc:Work
       rdf:about=""><dc:format>image/svg+xml</dc:format><dc:type
         rdf:resource="http://purl.org/dc/dcmitype/StillImage" /></cc:Work></rdf:RDF></metadata><defs
   id="defs25">
	
</defs><sodipodi:namedview
   pagecolor="#ffffff"
   bordercolor="#666666"
   borderopacity="1"
   objecttolerance="10"
   gridtolerance="10"
   guidetolerance="10"
   inkscape:pageopacity="0"
   inkscape:pageshadow="2"
   inkscape:window-width="768"
   inkscape:window-height="782"
   id="namedview23"
   showgrid="false"
   inkscape:zoom="0.83274525"
   inkscape:cx="47.613165"
   inkscape:cy="139.24537"
   inkscape:window-x="768"
   inkscape:window-y="0"
   inkscape:window-maximized="0"
   inkscape:current-layer="top-plate" />
<style
   type="text/css"
   id="style2">
	.st0{fill:none;stroke:#000000;stroke-width:0.2551;stroke-linecap:round;stroke-linejoin:round;stroke-miterlimit:10;}
</style>
<path
   id="polyline4"
   style="fill:none;stroke:#000000;stroke-width:0.25510001;stroke-linecap:round;stroke-linejoin:round;stroke-miterlimit:10"
   d="m 271.6,88.1 -0.1,-0.6 -0.1,-0.6 -0.2,-0.6 -0.3,-0.5 -0.3,-0.5 -0.4,-0.5 -0.4,-0.4 -0.5,-0.4 -0.5,-0.3 -0.6,-0.3 -3,-1.3 -3.3,-1.4 -3.4,-1.4 -3.5,-1.5 -3.7,-1.5 -3.9,-1.6 -4,-1.6 -4.2,-1.6 -4.3,-1.6 -4.4,-1.7 -4.6,-1.6 -4.7,-1.7 -4.8,-1.6 -4.9,-1.6 -5,-1.6 -5.1,-1.6 -5.2,-1.5 -5.4,-1.5 -5.3,-1.4 -5.5,-1.4 -5.5,-1.3 -5.7,-1.2 -5.6,-1.1 -5.8,-1.1 -5.8,-0.9 -5.8,-0.9 -5.9,-0.7 -5.9,-0.6 -5.9,-0.5 -6,-0.4 -6,-0.2 -6,-0.1 h -0.4 -0.7 -0.8 -1.1 -1.2 -1.4 H 103 101.3 99.5 97.6 95.5 93.4 91.3 89 86.8 84.5 82.2 79.9 77.6 75.4 73.2 71 69 67 65.1 63.4 61.8 60.3 59 h -1.1 -1 -0.7 -1.3 -1.4 l -1.3,0.1 h -1.5 -1.4 l -1.5,0.1 -1.5,0.1 -1.6,0.1 -1.5,0.1 -1.7,0.1 -1.6,0.1 -1.6,0.2 -1.7,0.2 -1.7,0.2 -1.7,0.2 -1.8,0.3 -1.7,0.3 -1.8,0.3 -1.8,0.3 -1.8,0.3 -1.8,0.4 -1.8,0.5 L 18.8,48 17,48.5 15.2,49 13.3,49.6 11.5,50.1 9.7,50.8 7.8,51.4 6,52.1 4.2,52.9 2.3,53.6 1.8,53.9 1.2,54.1 0.6,54.4 0,54.7 l -0.7,0.4 -0.8,0.3 -0.7,0.4 -0.8,0.4 -0.8,0.4 -0.9,0.4 -0.9,0.4 -0.9,0.4 -0.9,0.4 -0.9,0.4 -1,0.5 -0.9,0.4 -1,0.4 -1,0.4 -1,0.4 -1,0.3 -1,0.4 -1,0.3 -1,0.3 -1,0.3 -1,0.3 -1,0.3 -1,0.2 -1,0.1 -1,0.2 -0.9,0.1 H -25 l -1,0.1 h -97.3 -0.6 l -0.5,0.1 -0.9,0.2 -0.7,0.3 -0.7,0.5 -0.6,0.5 -0.5,0.6 -0.5,0.7 -0.3,0.8 -0.3,0.8 v 0.6 l -0.1,0.5 v 231.6 0.8 l 0.1,0.8 0.1,0.9 v 0.8 l 0.2,0.8 0.1,0.9 0.2,0.8 0.2,0.8 0.2,0.8 0.3,0.8 0.3,0.8 0.3,0.8 0.3,0.7 0.4,0.8 0.4,0.7 0.4,0.8 34.4,59.6 0.3,0.5 0.4,0.5 0.6,0.6 0.7,0.4 0.7,0.4 0.8,0.3 0.8,0.1 0.8,0.1 0.8,-0.1 0.8,-0.2 0.6,-0.2 0.5,-0.3 85.4,-49.3 0.7,-0.3 0.6,-0.4 0.7,-0.3 0.7,-0.3 0.7,-0.3 0.7,-0.2 0.7,-0.3 0.8,-0.2 0.7,-0.2 0.7,-0.1 0.8,-0.2 0.7,-0.1 h 0.8 l 0.7,-0.1 h 0.8 l 0.7,-0.1 h 139.9 4.8 l 4.7,-0.1 4.7,-0.3 4.7,-0.3 4.7,-0.4 4.6,-0.4 4.6,-0.5 4.5,-0.6 4.5,-0.6 4.4,-0.7 4.4,-0.7 4.2,-0.8 4.2,-0.8 4.1,-0.8 4,-0.9 3.9,-0.8 3.8,-0.9 3.6,-0.9 3.6,-0.9 3.4,-0.9 3.3,-0.9 3.2,-0.9 3,-0.9 2.8,-0.8 2.7,-0.8 2.5,-0.8 2.4,-0.8 2.2,-0.7 2,-0.7 1.8,-0.6 1.6,-0.5 1.4,-0.5 0.4,-0.2 0.6,-0.3 0.6,-0.4 0.5,-0.4 0.4,-0.5 0.4,-0.5 0.3,-0.6 0.3,-0.6 0.2,-0.6 0.1,-0.7 V 296.2 88.5 88.1" />





</svg>